<mxfile host="app.diagrams.net" modified="2024-03-23T02:03:43.609Z" agent="Mozilla/5.0 (Windows NT 10.0; Win64; x64) AppleWebKit/537.36 (KHTML, like Gecko) Chrome/122.0.0.0 Safari/537.36" etag="dfPSTmdYmNcEV2LlCdBM" version="24.0.8" type="github">
  <diagram name="Página-1" id="BeZaZHCf6Zr26Oyz17he">
    <mxGraphModel dx="2000" dy="1748" grid="1" gridSize="10" guides="1" tooltips="1" connect="1" arrows="1" fold="1" page="1" pageScale="1" pageWidth="827" pageHeight="1169" math="0" shadow="0">
      <root>
        <mxCell id="0" />
        <mxCell id="1" parent="0" />
        <mxCell id="UA72DyUYY74UFjulRpwV-5" style="edgeStyle=orthogonalEdgeStyle;rounded=0;orthogonalLoop=1;jettySize=auto;html=1;entryX=0;entryY=1;entryDx=0;entryDy=0;" edge="1" parent="1" source="UA72DyUYY74UFjulRpwV-1" target="UA72DyUYY74UFjulRpwV-4">
          <mxGeometry relative="1" as="geometry" />
        </mxCell>
        <mxCell id="UA72DyUYY74UFjulRpwV-1" value="Pessoa&lt;div&gt;&lt;br&gt;&lt;/div&gt;" style="rounded=0;whiteSpace=wrap;html=1;" vertex="1" parent="1">
          <mxGeometry x="50" y="200" width="120" height="60" as="geometry" />
        </mxCell>
        <mxCell id="UA72DyUYY74UFjulRpwV-6" style="edgeStyle=orthogonalEdgeStyle;rounded=0;orthogonalLoop=1;jettySize=auto;html=1;" edge="1" parent="1" source="UA72DyUYY74UFjulRpwV-2" target="UA72DyUYY74UFjulRpwV-4">
          <mxGeometry relative="1" as="geometry" />
        </mxCell>
        <mxCell id="UA72DyUYY74UFjulRpwV-2" value="Banco&lt;div&gt;&lt;br&gt;&lt;/div&gt;" style="rounded=0;whiteSpace=wrap;html=1;" vertex="1" parent="1">
          <mxGeometry x="315" y="90" width="120" height="60" as="geometry" />
        </mxCell>
        <mxCell id="UA72DyUYY74UFjulRpwV-7" style="edgeStyle=orthogonalEdgeStyle;rounded=0;orthogonalLoop=1;jettySize=auto;html=1;entryX=1;entryY=1;entryDx=0;entryDy=0;" edge="1" parent="1" source="UA72DyUYY74UFjulRpwV-3" target="UA72DyUYY74UFjulRpwV-4">
          <mxGeometry relative="1" as="geometry" />
        </mxCell>
        <mxCell id="UA72DyUYY74UFjulRpwV-3" value="company&lt;div&gt;&lt;br&gt;&lt;/div&gt;" style="rounded=0;whiteSpace=wrap;html=1;" vertex="1" parent="1">
          <mxGeometry x="580" y="210" width="110" height="60" as="geometry" />
        </mxCell>
        <mxCell id="UA72DyUYY74UFjulRpwV-27" style="edgeStyle=orthogonalEdgeStyle;rounded=0;orthogonalLoop=1;jettySize=auto;html=1;" edge="1" parent="1" source="UA72DyUYY74UFjulRpwV-4" target="UA72DyUYY74UFjulRpwV-25">
          <mxGeometry relative="1" as="geometry" />
        </mxCell>
        <mxCell id="UA72DyUYY74UFjulRpwV-4" value="U" style="ellipse;whiteSpace=wrap;html=1;aspect=fixed;" vertex="1" parent="1">
          <mxGeometry x="350" y="250" width="50" height="50" as="geometry" />
        </mxCell>
        <mxCell id="UA72DyUYY74UFjulRpwV-14" style="edgeStyle=orthogonalEdgeStyle;rounded=0;orthogonalLoop=1;jettySize=auto;html=1;entryX=0;entryY=0.25;entryDx=0;entryDy=0;" edge="1" parent="1" source="UA72DyUYY74UFjulRpwV-8" target="UA72DyUYY74UFjulRpwV-1">
          <mxGeometry relative="1" as="geometry" />
        </mxCell>
        <mxCell id="UA72DyUYY74UFjulRpwV-8" value="CPF&lt;span style=&quot;white-space: pre;&quot;&gt;&#x9;&lt;/span&gt;" style="ellipse;whiteSpace=wrap;html=1;" vertex="1" parent="1">
          <mxGeometry x="-50" y="60" width="80" height="60" as="geometry" />
        </mxCell>
        <mxCell id="UA72DyUYY74UFjulRpwV-13" style="edgeStyle=orthogonalEdgeStyle;rounded=0;orthogonalLoop=1;jettySize=auto;html=1;" edge="1" parent="1" source="UA72DyUYY74UFjulRpwV-9">
          <mxGeometry relative="1" as="geometry">
            <mxPoint x="80" y="210" as="targetPoint" />
          </mxGeometry>
        </mxCell>
        <mxCell id="UA72DyUYY74UFjulRpwV-9" value="Licença" style="ellipse;whiteSpace=wrap;html=1;" vertex="1" parent="1">
          <mxGeometry x="30" width="80" height="70" as="geometry" />
        </mxCell>
        <mxCell id="UA72DyUYY74UFjulRpwV-15" style="edgeStyle=orthogonalEdgeStyle;rounded=0;orthogonalLoop=1;jettySize=auto;html=1;entryX=0.75;entryY=0;entryDx=0;entryDy=0;" edge="1" parent="1" source="UA72DyUYY74UFjulRpwV-10" target="UA72DyUYY74UFjulRpwV-1">
          <mxGeometry relative="1" as="geometry">
            <Array as="points">
              <mxPoint x="130" y="200" />
            </Array>
          </mxGeometry>
        </mxCell>
        <mxCell id="UA72DyUYY74UFjulRpwV-10" value="Nome" style="ellipse;whiteSpace=wrap;html=1;" vertex="1" parent="1">
          <mxGeometry x="130" y="30" width="90" height="70" as="geometry" />
        </mxCell>
        <mxCell id="UA72DyUYY74UFjulRpwV-16" style="edgeStyle=orthogonalEdgeStyle;rounded=0;orthogonalLoop=1;jettySize=auto;html=1;entryX=1;entryY=0;entryDx=0;entryDy=0;" edge="1" parent="1" source="UA72DyUYY74UFjulRpwV-11" target="UA72DyUYY74UFjulRpwV-1">
          <mxGeometry relative="1" as="geometry">
            <Array as="points">
              <mxPoint x="170" y="150" />
            </Array>
          </mxGeometry>
        </mxCell>
        <mxCell id="UA72DyUYY74UFjulRpwV-11" value="Endereço" style="ellipse;whiteSpace=wrap;html=1;" vertex="1" parent="1">
          <mxGeometry x="180" y="120" width="90" height="60" as="geometry" />
        </mxCell>
        <mxCell id="UA72DyUYY74UFjulRpwV-17" style="edgeStyle=orthogonalEdgeStyle;rounded=0;orthogonalLoop=1;jettySize=auto;html=1;entryX=0.25;entryY=0;entryDx=0;entryDy=0;" edge="1" parent="1" source="UA72DyUYY74UFjulRpwV-12" target="UA72DyUYY74UFjulRpwV-2">
          <mxGeometry relative="1" as="geometry" />
        </mxCell>
        <mxCell id="UA72DyUYY74UFjulRpwV-12" value="bnome" style="ellipse;whiteSpace=wrap;html=1;" vertex="1" parent="1">
          <mxGeometry x="310" width="70" height="60" as="geometry" />
        </mxCell>
        <mxCell id="UA72DyUYY74UFjulRpwV-19" style="edgeStyle=orthogonalEdgeStyle;rounded=0;orthogonalLoop=1;jettySize=auto;html=1;entryX=1;entryY=0.25;entryDx=0;entryDy=0;" edge="1" parent="1" source="UA72DyUYY74UFjulRpwV-18" target="UA72DyUYY74UFjulRpwV-2">
          <mxGeometry relative="1" as="geometry" />
        </mxCell>
        <mxCell id="UA72DyUYY74UFjulRpwV-18" value="Bendereço&lt;div&gt;&lt;br&gt;&lt;/div&gt;" style="ellipse;whiteSpace=wrap;html=1;" vertex="1" parent="1">
          <mxGeometry x="400" y="-20" width="80" height="60" as="geometry" />
        </mxCell>
        <mxCell id="UA72DyUYY74UFjulRpwV-21" style="edgeStyle=orthogonalEdgeStyle;rounded=0;orthogonalLoop=1;jettySize=auto;html=1;entryX=1;entryY=0.25;entryDx=0;entryDy=0;" edge="1" parent="1" source="UA72DyUYY74UFjulRpwV-20" target="UA72DyUYY74UFjulRpwV-3">
          <mxGeometry relative="1" as="geometry">
            <mxPoint x="700" y="190" as="targetPoint" />
          </mxGeometry>
        </mxCell>
        <mxCell id="UA72DyUYY74UFjulRpwV-20" value="Cendereço&lt;div&gt;&lt;br&gt;&lt;/div&gt;" style="ellipse;whiteSpace=wrap;html=1;" vertex="1" parent="1">
          <mxGeometry x="650" y="80" width="100" height="70" as="geometry" />
        </mxCell>
        <mxCell id="UA72DyUYY74UFjulRpwV-24" style="edgeStyle=orthogonalEdgeStyle;rounded=0;orthogonalLoop=1;jettySize=auto;html=1;entryX=1;entryY=0.75;entryDx=0;entryDy=0;" edge="1" parent="1" source="UA72DyUYY74UFjulRpwV-23" target="UA72DyUYY74UFjulRpwV-3">
          <mxGeometry relative="1" as="geometry">
            <Array as="points">
              <mxPoint x="710" y="240" />
              <mxPoint x="710" y="255" />
            </Array>
          </mxGeometry>
        </mxCell>
        <mxCell id="UA72DyUYY74UFjulRpwV-23" value="cnome" style="ellipse;whiteSpace=wrap;html=1;" vertex="1" parent="1">
          <mxGeometry x="730" y="190" width="90" height="60" as="geometry" />
        </mxCell>
        <mxCell id="UA72DyUYY74UFjulRpwV-25" value="OWNER" style="rounded=0;whiteSpace=wrap;html=1;" vertex="1" parent="1">
          <mxGeometry x="315" y="420" width="120" height="60" as="geometry" />
        </mxCell>
      </root>
    </mxGraphModel>
  </diagram>
</mxfile>
